<?xml version="1.0" encoding="UTF-8" standalone="no"?>
<!-- Created with Inkscape (http://www.inkscape.org/) -->

<svg
   xmlns:dc="http://purl.org/dc/elements/1.1/"
   xmlns:cc="http://creativecommons.org/ns#"
   xmlns:rdf="http://www.w3.org/1999/02/22-rdf-syntax-ns#"
   xmlns:svg="http://www.w3.org/2000/svg"
   xmlns="http://www.w3.org/2000/svg"
   xmlns:sodipodi="http://sodipodi.sourceforge.net/DTD/sodipodi-0.dtd"
   xmlns:inkscape="http://www.inkscape.org/namespaces/inkscape"
   width="575.43921"
   height="683"
   id="svg2"
   version="1.1"
   inkscape:version="0.48.2 r9819"
   sodipodi:docname="Silhouette_1330347.svg">
  <defs
     id="defs4" />
  <sodipodi:namedview
     id="base"
     pagecolor="#ffffff"
     bordercolor="#666666"
     borderopacity="1.0"
     inkscape:pageopacity="0.0"
     inkscape:pageshadow="2"
     inkscape:zoom="0.38664529"
     inkscape:cx="368.77238"
     inkscape:cy="330.35054"
     inkscape:document-units="px"
     inkscape:current-layer="layer1"
     showgrid="false"
     inkscape:window-width="1366"
     inkscape:window-height="706"
     inkscape:window-x="-8"
     inkscape:window-y="-8"
     inkscape:window-maximized="1"
     fit-margin-top="0"
     fit-margin-left="0"
     fit-margin-right="0"
     fit-margin-bottom="0" />
  <metadata
     id="metadata7">
    <rdf:RDF>
      <cc:Work
         rdf:about="">
        <dc:format>image/svg+xml</dc:format>
        <dc:type
           rdf:resource="http://purl.org/dc/dcmitype/StillImage" />
        <dc:title></dc:title>
      </cc:Work>
    </rdf:RDF>
  </metadata>
  <g
     inkscape:label="Layer 1"
     inkscape:groupmode="layer"
     id="layer1"
     transform="translate(-74.084739,-219.40059)">
    <path
       style="fill:#000000"
       d="m 346.29745,900.40062 c -1.33192,-1.332 -2,-3.3334 -2,-5.9916 0,-2.90848 0.54265,-4.33037 2,-5.2405 1.1,-0.68696 2,-1.65092 2,-2.14213 0,-0.89315 5.05032,-5.62227 6.0066,-5.62458 0.27863,-6.7e-4 1.96006,0.41563 3.73652,0.92511 1.98202,0.56843 3.4511,0.56843 3.80241,0 0.31488,-0.50948 2.62822,-0.92633 5.14077,-0.92633 7.58969,0 24.84095,-9.47327 38.21895,-20.98736 10.5374,-9.06927 28.52285,-34.89291 26.53832,-38.10394 -0.30888,-0.49978 -0.02,-0.9087 0.64202,-0.9087 0.87919,0 1.04012,-1.81941 0.59705,-6.75 -0.55992,-6.23079 -0.89795,-7.0071 -4.39461,-10.0925 -4.12822,-3.64267 -8.70951,-6.22339 -15.44504,-8.70045 -12.21577,-4.49248 -26.7368,-9.3559 -29.84299,-9.99509 -1.925,-0.39613 -5.81312,-1.74052 -8.64027,-2.98754 -2.82715,-1.24702 -6.65215,-2.59624 -8.5,-2.99827 -1.84785,-0.40202 -4.48473,-1.19842 -5.85973,-1.76976 -1.375,-0.57134 -2.725,-1.09947 -3,-1.17362 -2.00294,-0.54008 -13.89573,-4.04847 -20.5,-6.04754 -4.4,-1.33185 -12.5,-3.60021 -18,-5.0408 -5.5,-1.44059 -12.10842,-3.47992 -14.68538,-4.53184 -2.57696,-1.05193 -5.57696,-1.91259 -6.66667,-1.91259 -1.0897,0 -2.13128,-0.3375 -2.31462,-0.75 -0.18333,-0.4125 -4.83333,-2.26887 -10.33333,-4.12528 -5.5,-1.8564 -12.025,-4.28006 -14.5,-5.38592 -6.19805,-2.76935 -7.89243,-3.41863 -12.5,-4.78993 -2.2,-0.65476 -4.4275,-1.58611 -4.95,-2.06967 -0.5225,-0.48356 -1.62616,-0.8792 -2.45257,-0.8792 -0.82642,0 -6.58743,-2.49143 -12.80225,-5.5365 -6.21483,-3.04508 -13.21117,-6.4354 -15.54743,-7.53405 -5.58488,-2.62634 -8.35033,-4.25985 -10.49086,-6.19681 -0.96629,-0.87439 -5.1319,-2.70736 -9.2569,-4.07327 -9.7808,-3.23872 -13.2931,-5.05597 -20.2572,-10.48095 -6.3777,-4.96812 -9.666,-9.45966 -15.9875,-21.83731 -2.3404,-4.58263 -4.6124,-8.3341 -5.0489,-8.33659 -0.4365,-0.002 -2.0115,1.14604 -3.5,2.55229 -1.4885,1.40625 -3.9439,3.30327 -5.4564,4.21561 -1.5125,0.91234 -2.75,2.01177 -2.75,2.44319 0,0.43141 -0.6199,0.78439 -1.3776,0.78439 -0.7576,0 -1.9377,0.675 -2.6224,1.5 -1.8437,2.22157 -5.349,1.82187 -7.9077,-0.90171 -2.7969,-2.97724 -3.8875,-9.6481 -1.9077,-11.66921 0.7699,-0.78599 2.0024,-2.90224 2.7388,-4.70278 0.7364,-1.80053 1.9041,-3.60053 2.5949,-4 0.6908,-0.39946 2.9114,-2.71683 4.9347,-5.14971 3.0001,-3.60753 3.4057,-4.57616 2.1988,-5.25159 -2.3177,-1.29705 -4.1663,-0.0566 -5.5282,3.70972 -0.6892,1.9059 -1.6436,3.46528 -2.1209,3.46528 -0.4774,0 -1.1284,0.82067 -1.4467,1.82371 -0.3184,1.00305 -1.4993,2.81168 -2.6243,4.01918 -1.1249,1.2075 -2.5617,4.65746 -3.1929,7.66658 -1.3162,6.27518 -0.1146,11.21804 3.7659,15.49053 1.2488,1.375 2.6105,3.625 3.026,5 0.4155,1.375 1.5848,3.22238 2.5985,4.10528 2.7126,2.36258 2.9595,9.02359 0.4611,12.44032 -1.3488,1.84462 -1.4937,1.85178 -3.3566,0.1659 -1.7349,-1.57004 -2.0848,-1.59583 -3.2128,-0.23673 -0.6962,0.83888 -1.794,1.52523 -2.4395,1.52523 -1.9443,0 -13.6538,-13.77573 -16.2054,-19.06504 -1.5864,-3.28848 -3.0007,-4.93496 -4.2388,-4.93496 -1.022,0 -3.5159,-1.125 -5.5421,-2.5 -2.0261,-1.375 -3.9345,-2.5 -4.2407,-2.5 -0.3062,0 -2.6931,-2.04745 -5.304295,-4.54989 -2.6111,-2.50244 -5.719,-5.23035 -6.9064,-6.06202 -3.4508,-2.41702 -3.7671,0.58026 -0.7047,6.67735 3.141,6.25359 3.7424,10.8207 1.7362,13.18456 -2.4883,2.93196 -4.4593,1.95606 -9.6752,-4.79042 -5.6136,-7.26093 -5.798,-7.646 -7.6026,-15.87751 -2.2041,-10.05369 -1.304,-14.82061 4.3113,-22.83207 1.0601,-1.5125 1.6021,-2.75 1.2044,-2.75 -0.3977,0 -0.023,-0.7875 0.8333,-1.75 0.856,-0.9625 2.1194,-3.65397 2.8076,-5.98105 0.736,-2.48884 2.0119,-4.47248 3.0986,-4.81739 1.0161,-0.32248 1.8474,-0.94413 1.8474,-1.38144 0,-0.6874 3.7299,-5.89954 7.0275,-9.82012 0.5782,-0.6875 0.8036,-1.25 0.5009,-1.25 -0.822,0 9.482395,-10.3578 22.513495,-22.63013 6.348,-5.97843 15.0476,-14.1897 19.3324,-18.24727 5.275,-4.99526 9.4407,-8.00439 12.9009,-9.31917 2.8107,-1.06798 6.3306,-2.81065 7.8219,-3.8726 1.4914,-1.06196 3.1198,-1.93083 3.6187,-1.93083 0.4989,0 1.7794,-0.79899 2.8456,-1.77554 1.0663,-0.97655 3.9636,-2.42446 6.4386,-3.21759 2.475,-0.79313 5.625,-2.01636 7,-2.7183 1.375,-0.70194 3.0625,-1.27902 3.75,-1.28241 0.6875,-0.003 1.25,-0.45616 1.25,-1.00616 0,-0.55 0.48,-1 1.0667,-1 0.5867,0 2.5417,-1.125 4.3444,-2.5 1.8027,-1.375 3.7977,-2.5 4.4333,-2.5 0.6356,0 1.1556,-0.47656 1.1556,-1.05902 0,-0.58246 0.3957,-0.81448 0.8793,-0.51561 0.4835,0.29887 1.946,-0.47461 3.25,-1.71885 1.3039,-1.24425 4.1707,-3.14972 6.3707,-4.23439 2.2,-1.08467 5.63977,-3.20963 7.64391,-4.72213 2.00415,-1.5125 3.94807,-2.75 4.31983,-2.75 0.37176,0 2.782,-1.46191 5.35609,-3.2487 5.56458,-3.8626 8.99205,-5.74109 10.54449,-5.77912 3.4286,-0.084 13.41111,-10.5385 15.07825,-15.7912 0.38072,-1.19954 1.11189,-2.18098 1.62483,-2.18098 0.51293,0 0.93261,-0.87344 0.93261,-1.94098 0,-1.06754 0.42049,-2.20086 0.93441,-2.51849 0.51393,-0.31762 1.63439,-2.98531 2.48991,-5.92819 0.85552,-2.94288 2.23503,-5.91466 3.06558,-6.60396 0.83056,-0.6893 1.5101,-2.07161 1.5101,-3.07181 0,-1.00019 0.39465,-2.06244 0.877,-2.36055 0.48236,-0.29812 1.38188,-2.54705 1.99895,-4.99765 1.29851,-5.15686 8.96781,-21.91844 10.25452,-22.4117 0.47824,-0.18334 0.86953,-1.20478 0.86953,-2.26988 0,-1.06509 1.04448,-3.61509 2.32107,-5.66666 1.90939,-3.06852 4.86099,-13.60533 7.27764,-25.98013 0.59307,-3.03691 -1.62405,-2.91638 -4.59871,0.25 -1.29175,1.375 -2.87544,2.5 -3.51933,2.5 -0.64388,0 -1.98518,0.9 -2.98067,2 -2.46262,2.72117 -3.01684,2.59076 -8.5,-2 -5.499,-4.60402 -6.52137,-4.79828 -9.67261,-1.83784 -2.10016,1.973 -2.65664,2.05577 -6.36046,0.94608 -4.30206,-1.28893 -5.39596,-2.87541 -6.44707,-9.35018 -0.88148,-5.42986 -4.02381,-5.94396 -11.57002,-1.8929 -7.18603,3.85769 -8.9305,3.90434 -11.3428,0.30334 -1.04113,-1.55416 -3.45344,-3.895 -5.36069,-5.20187 -3.35636,-2.29983 -3.56316,-2.32138 -6.43806,-0.67138 -7.6437,4.38688 -12.5879,0.82665 -17.1218,-12.32917 -7.6071,-22.07328 -9.1124,-24.75688 -14.0895,-25.11839 -1.1533,-0.0838 -2.5985,-0.20306 -3.2115,-0.26508 -1.7623,-0.1783 -4.3855,-2.69357 -4.3855,-4.20505 0,-0.75766 -0.3665,-1.37756 -0.8145,-1.37756 -1.0222,0 -5.1855,-7.70078 -5.1855,-9.59162 0,-2.0509 -6.9509,-9.40838 -8.8885,-9.40838 -2.6299,0 -9.2167,-6.01222 -10.8738,-9.92521 -3.4872,-8.23474 -6.1562,-22.01489 -6.7568,-34.88537 -0.162,-3.47081 -0.5631,-7.38073 -0.8914,-8.68871 -0.3282,-1.30798 -0.1918,-2.62847 0.3033,-2.93443 1.2221,-0.75533 5.1072,-8.31047 5.1072,-9.93178 0,-0.71715 1.2375,-2.44198 2.75,-3.83295 4.1699,-3.83487 5.9272,-6.27006 5.484,-7.59962 -0.2204,-0.66106 0.2618,-1.20193 1.0714,-1.20193 0.8823,0 1.7275,-1.3619 2.1098,-3.39942 0.3507,-1.86968 1.7372,-5.01968 3.0811,-7 1.3439,-1.98032 2.1769,-3.60058 1.8511,-3.60058 -0.3257,0 -0.1682,-0.5625 0.35,-1.25 0.5183,-0.6875 1.5723,-3.275 2.3422,-5.75 1.1822,-3.80013 3.9604,-8.41003 3.9604,-6.57143 0,0.31429 0.9563,-0.27232 2.125,-1.30357 4.8384,-4.2692 5.5542,-4.73194 6.7188,-4.34375 0.6703,0.22344 1.1514,0.0266 1.069,-0.4375 -0.4802,-2.70721 0.2398,-3.54773 2.6452,-3.08791 1.9223,0.36747 2.4222,0.135 2.0115,-0.93536 -0.305,-0.79483 -0.1066,-1.1524 0.449,-0.80904 0.5476,0.33843 1.2656,-0.0882 1.5956,-0.94806 0.3299,-0.85986 1.3392,-1.56615 2.2429,-1.56954 0.9036,-0.003 2.9273,-0.676 4.4971,-1.49469 1.5697,-0.8187 3.2572,-1.23937 3.75,-0.93483 0.4927,0.30454 0.8959,0.0832 0.8959,-0.49188 0,-3.18684 26.93779,-9.60053 28.65457,-6.82244 0.25491,0.4125 0.91347,0.75 1.46347,0.75 0.55,0 0.72189,-0.45 0.38197,-1 -0.35052,-0.56716 0.48962,-1 1.94098,-1 1.40746,0 2.55902,0.50107 2.55902,1.1135 0,0.68754 1.24325,0.93083 3.25,0.63597 3.04534,-0.44746 5.11151,0.0493 10.43429,2.50886 1.20136,0.55511 3.09848,0.77023 4.21582,0.47804 1.21413,-0.3175 1.94468,-0.0741 1.8157,0.60495 -0.12191,0.64186 1.08944,1.14109 2.78419,1.14744 1.65,0.006 4.71322,1.02374 6.80716,2.26124 2.09394,1.2375 4.71358,2.25 5.82143,2.25 1.10785,0 2.68927,0.675 3.51427,1.5 1.76976,1.76976 4.81474,2.04943 3.76165,0.34549 -0.44208,-0.7153 -0.27432,-0.88306 0.44098,-0.44098 0.63498,0.39244 1.15451,1.36197 1.15451,2.15451 0,0.79254 0.675,1.44098 1.5,1.44098 0.825,0 1.5,0.39379 1.5,0.8751 0,0.4813 1.37175,1.53945 3.04833,2.35144 4.53002,2.19396 12.8304,10.54746 14.53564,14.62867 0.82148,1.96608 1.81365,3.81547 2.20482,4.10974 1.01269,0.76185 3.01715,4.02774 4.67354,7.61466 0.78217,1.69378 2.07897,3.62474 2.88178,4.29101 0.80282,0.66628 1.75873,2.40301 2.12427,3.8594 0.95064,3.78767 4.09088,8.0311 10.20352,13.78807 2.93045,2.75995 5.3281,5.73218 5.3281,6.60494 0,2.05093 10.0433,11.55881 13.69366,12.96365 1.54349,0.594 3.86165,1.19771 5.15147,1.34157 1.28982,0.14386 2.72358,0.87391 3.18613,1.62233 0.46255,0.74842 2.33165,1.53099 4.15356,1.73904 1.8219,0.20805 3.87564,0.8456 4.56387,1.41677 1.5915,1.32084 1.62327,6.02165 0.0513,7.59361 -0.66,0.66 -0.8299,1.2 -0.37756,1.2 0.45235,0 0.26225,0.675 -0.42244,1.5 -1.01808,1.22671 -0.95427,1.5 0.35022,1.5 2.22548,0 12.64979,-5.04089 12.64979,-6.11707 0,-0.48561 0.60526,-0.88293 1.34501,-0.88293 0.73976,0 2.1595,-0.9 3.15499,-2 0.99549,-1.1 2.41523,-2 3.15499,-2 0.73975,0 1.34501,-0.5625 1.34501,-1.25 0,-0.71607 1.38821,-1.3073 3.25,-1.38415 4.76283,-0.1966 15.71843,-2.74915 19.75,-4.60155 3.25321,-1.49477 10.11192,-2.54619 21,-3.21923 2.475,-0.15299 4.725,-0.38755 5,-0.52124 1.86009,-0.90431 7.15454,-0.57709 7.76536,0.47993 0.40405,0.6992 3.43337,1.82688 6.73182,2.50597 4.47712,0.92174 6.7583,2.0343 9,4.38941 1.65155,1.7351 5.02782,4.36065 7.50282,5.83456 2.475,1.47391 6.075,4.01027 8,5.63635 3.86937,3.26852 19.06337,11.47955 23.02081,12.44075 1.38645,0.33674 3.86145,1.87493 5.5,3.41819 1.63856,1.54326 4.21669,3.43661 5.72919,4.20745 1.5125,0.77083 2.75,1.80204 2.75,2.29156 0,0.48952 0.45,0.61192 1,0.272 0.55,-0.33992 1,7.2e-4 1,0.75698 0,1.94548 6.43063,7.44454 13.47348,11.52167 1.63541,0.94674 4.49777,3.18871 6.36081,4.98216 1.86303,1.79344 4.79996,4.24709 6.52652,5.45256 1.72655,1.20546 3.85987,2.99241 4.74071,3.971 0.88084,0.97859 1.87191,1.50887 2.20238,1.17839 0.68186,-0.68185 3.6961,2.0461 3.6961,3.34505 0,0.46787 0.9,1.49935 2,2.29219 1.1,0.79284 2,1.97968 2,2.63743 0,0.65774 0.3375,1.3459 0.75,1.52924 0.4125,0.18333 2.2491,2.13333 4.08132,4.33333 1.83223,2.2 6.12202,6.925 9.53285,10.5 8.70464,9.12358 16.18132,18.13414 15.88583,19.14488 -0.1375,0.47031 0.37373,0.85512 1.13606,0.85512 0.76233,0 2.12477,1.4625 3.02764,3.25 2.17559,4.3072 3.71856,6.722 5.8363,9.13398 1.51724,1.72804 2.24622,4.37584 1.88042,6.83003 -0.0585,0.39271 0.56317,0.45706 1.38158,0.14301 1.00735,-0.38655 1.488,0.066 1.488,1.40113 0,1.08467 0.9,3.1163 2,4.51472 1.1,1.39842 2,3.03411 2,3.63486 0,0.60075 0.39752,1.09227 0.88337,1.09227 0.97934,0 2.41939,3.79604 2.18128,5.75 -0.0838,0.6875 0.23341,1.25 0.70487,1.25 0.47145,0 1.46782,1.55626 2.21414,3.45837 0.74633,1.9021 1.95532,3.68797 2.68665,3.96861 0.73133,0.28064 1.32969,1.14427 1.32969,1.91919 0,0.77492 0.61875,1.92246 1.375,2.55009 0.75625,0.62763 1.375,2.20148 1.375,3.49744 0,1.29597 0.93115,3.28745 2.06922,4.42552 1.13808,1.13808 2.36941,3.66933 2.73629,5.625 0.36689,1.95568 1.08672,3.55578 1.59962,3.55578 0.5129,0 0.80337,0.5625 0.64549,1.25 -0.15787,0.6875 0.1599,1.45472 0.70617,1.70493 1.46297,0.6701 3.5717,5.10905 2.92452,6.15621 -0.30694,0.49664 0.17131,1.18288 1.06278,1.52497 0.89147,0.34208 1.39674,1.206 1.12282,1.91982 -0.27391,0.71381 0.15022,1.83584 0.94253,2.4934 0.79231,0.65756 1.44056,2.04046 1.44056,3.07311 0,1.03266 0.37966,1.87756 0.84369,1.87756 0.46403,0 2.32662,4.6125 4.13908,10.25 1.81246,5.6375 3.67893,11.15 4.1477,12.25 1.60748,3.77198 5.48554,20.33865 7.84197,33.5 0.64007,3.575 1.53049,7.4 1.97872,8.5 0.84815,2.0815 3.60385,14.42621 4.57619,20.5 0.30817,1.925 0.94285,5.075 1.41041,7 0.46755,1.925 1.60197,8.9 2.52093,15.5 0.91896,6.6 2.74721,17.85 4.06278,25 4.0041,21.76197 4.69093,36.94057 2.4077,53.20921 -1.06451,7.58493 -2.37252,14.69079 -2.9067,15.79079 -0.53418,1.1 -1.94188,4.7 -3.12824,8 -2.16518,6.02274 -9.7333,22.25971 -12.11871,26 -0.70154,1.1 -1.83802,2.35986 -2.52552,2.79969 -0.6875,0.43983 -1.25,1.3571 -1.25,2.03838 0,1.60263 -14.4612,18.18045 -19.56996,22.43434 -7.25946,6.04469 -12.8912,9.89713 -18.93004,12.94925 -10.27436,5.19282 -13.46536,6.17095 -27,8.27627 -8.66658,1.34808 -10.69452,1.94017 -10.30505,3.0087 0.16778,0.4603 4.08699,5.11489 8.70935,10.34353 4.62237,5.22864 9.02874,11.22635 9.79194,13.32823 0.76319,2.10189 1.65453,8.1245 1.98075,13.38359 l 0.59312,9.56198 -3.79011,5.7083 c -3.5229,5.30588 -7.12265,8.43448 -21.65857,18.82381 -7.95979,5.68914 -24.78185,19.06877 -36.82143,29.28636 -6.325,5.3678 -12.94805,10.3892 -14.71788,11.1586 -2.65806,1.1556 -15.66261,1.399 -74.75,1.399 -70.19879,0 -71.5694,-0.037 -73.53212,-2 z M 97.758745,641.65059 c 0.3279,-0.9625 2.840495,-4.225 5.583595,-7.25 2.7801,-3.06587 5.4415,-7.16545 6.0133,-9.26313 1.136,-4.1666 6.0272,-10.3118 8.9446,-11.23775 1.6501,-0.52373 8.9972,-9.56548 8.9972,-11.07248 0,-0.31279 -4.9498,4.07575 -10.9995,9.75232 -6.0498,5.67657 -10.9998,10.93359 -11,11.68226 -3e-4,0.74867 -1.7429,3.44867 -3.8726,6 -3.997295,4.78878 -8.117595,11.07195 -8.124195,12.38878 -0.01,1.55044 3.8864,0.67685 4.4576,-1 z m 34.694195,-2.5 c 2.3895,-1.2375 4.8915,-2.76485 5.56,-3.39411 0.6686,-0.62926 3.2197,-2.11428 5.6691,-3.30004 2.4495,-1.18575 4.9951,-2.8084 5.6569,-3.60588 0.6619,-0.79748 1.8233,-1.44997 2.5809,-1.44997 0.7577,0 1.3776,-0.70156 1.3776,-1.55902 0,-0.85746 0.4764,-1.26457 1.0587,-0.90469 1.3041,0.80594 8.1496,-3.7001 13.2072,-8.69349 2.0712,-2.04495 4.6587,-4.00147 5.75,-4.34783 1.0912,-0.34636 1.9841,-1.07598 1.9841,-1.62137 0,-0.5454 0.3811,-0.75608 0.847,-0.46817 0.9963,0.61578 6.4383,-4.78685 5.6329,-5.59224 -0.3015,-0.30147 1.5136,-2.58081 4.0336,-5.06519 4.5372,-4.47313 7.6247,-5.748 13.9204,-5.748 1.7511,0 4.0574,-0.66069 5.125,-1.4682 1.0676,-0.8075 2.7286,-1.4825 3.6911,-1.5 0.9625,-0.0175 1.75,-0.3952 1.75,-0.83935 0,-0.44416 1.91251,-1.60689 4.25001,-2.58385 6.54694,-2.73631 10.75,-4.99174 10.75,-5.76862 0,-0.38786 1.0125,-1.02218 2.25,-1.40959 1.2375,-0.38741 4.05,-1.91166 6.25,-3.38721 2.2,-1.47556 5.41523,-3.24892 7.14496,-3.94081 1.72973,-0.6919 4.00155,-2.01048 5.0485,-2.93018 1.04695,-0.9197 3.23172,-2.43046 4.85504,-3.35723 2.78346,-1.58911 4.42977,-2.39955 13.79251,-6.78977 9.4659,-4.43859 23.64834,-13.59744 23.65355,-15.27519 0.003,-0.9625 -0.24191,-1.75 -0.54422,-1.75 -0.97653,0 -6.23107,2.91969 -10.78157,5.99078 -2.43902,1.64607 -6.84977,4.27698 -9.80168,5.84645 -2.9519,1.56948 -7.06828,3.82316 -9.14751,5.00818 -2.07923,1.18503 -4.64017,2.15459 -5.69098,2.15459 -1.05081,0 -2.20476,0.47601 -2.56432,1.0578 -0.35957,0.58179 -3.19863,2.22099 -6.30902,3.64268 -12.82597,5.86243 -16.12508,7.55823 -17.18218,8.83196 -0.6112,0.73645 -2.54268,1.64301 -4.29218,2.01457 -1.74949,0.37157 -3.8559,1.25307 -4.6809,1.9589 -1.89598,1.62211 -20.04681,10.49409 -21.46941,10.49409 -1.7892,0 -8.8629,4.04996 -12.0306,6.88804 -1.65,1.4783 -5.025,3.73166 -7.5,5.00746 -2.475,1.2758 -14.7213,9.13374 -27.214,17.46207 -18.4428,12.295 -22.8287,15.65496 -23.3241,17.86803 -0.6251,2.79253 -10e-4,4.7744 1.5026,4.7744 0.4656,0 2.8015,-1.0125 5.191,-2.25 z m 99.3557,-34.76379 c 1.09384,-1.20946 3.56381,-3.00735 5.48881,-3.9953 1.925,-0.98795 4.59094,-2.96507 5.92431,-4.39359 1.33338,-1.42853 2.8659,-2.59732 3.40561,-2.59732 0.53972,0 2.41273,-1.0918 4.16225,-2.42623 1.74952,-1.33442 5.617,-3.24692 8.59439,-4.25 l 5.41344,-1.82377 -3.71575,-0.30832 c -4.98416,-0.41358 -19.20661,3.51255 -21.36535,5.89793 -0.95088,1.05072 -2.27147,1.91039 -2.93464,1.91039 -1.17289,0 -8.53664,10.71824 -9.80607,14.27314 -0.51448,1.44073 -0.30723,1.59869 1.1055,0.84262 0.95628,-0.51178 2.63365,-1.92008 3.7275,-3.12955 z m 222.94342,-2.73621 c -0.41766,-0.9625 -0.97775,-3.325 -1.24465,-5.25 -0.27705,-1.99814 -1.92807,-5.18637 -3.84762,-7.43 -1.84929,-2.1615 -3.36234,-4.30865 -3.36234,-4.77144 0,-1.11908 -4.29279,-7.70314 -10.62662,-16.29856 -5.33941,-7.24593 -6.95207,-10.40184 -13.47111,-26.36242 -2.12266,-5.19694 -4.65654,-10.18507 -5.63083,-11.08474 -3.52804,-3.25782 -11.30822,-8.14814 -12.14267,-7.63242 -0.9664,0.59727 -2.21145,5.3 -4.61671,17.43807 -2.44168,12.32181 -4.46145,18.00167 -8.58478,24.14151 -5.27987,7.86199 -11.4044,13.53498 -16.77517,15.53839 -2.55866,0.95443 -5.46956,2.44559 -6.46867,3.31369 -1.91467,1.66361 -0.24116,2.01665 29.31656,6.18464 4.125,0.58167 9.75,1.79458 12.5,2.69535 3.04934,0.99882 8.54143,1.66316 14.07753,1.70285 8.2993,0.0595 9.3851,0.29966 12.66527,2.80134 1.97326,1.50495 6.66337,3.59385 10.42247,4.64201 8.75536,2.44127 8.68593,2.43795 7.78934,0.37173 z m -139.35383,-75.4138 c 1.86957,-0.64009 3.62422,-1.44663 3.89922,-1.79231 0.275,-0.34567 1.86596,-1.28446 3.53547,-2.08619 5.47952,-2.63138 12.33358,-7.36256 12.92959,-8.92494 0.32159,-0.84302 1.27374,-2.77167 2.11589,-4.2859 1.83673,-3.3025 2.84951,-9.36114 4.88902,-29.24686 0.84613,-8.25 1.81261,-16.4625 2.14773,-18.25 0.36823,-1.96416 0.20019,-3.25 -0.42475,-3.25 -0.56872,0 -1.34575,1.4625 -1.72673,3.25 -0.38098,1.7875 -1.54173,5.13781 -2.57945,7.44514 -1.03773,2.30732 -1.88677,4.62413 -1.88677,5.14845 0,0.52433 -1.40944,3.58651 -3.13208,6.80486 -1.72265,3.21835 -5.5103,10.35155 -8.417,15.85155 -2.90671,5.5 -6.43376,12.025 -7.8379,14.5 -10.18735,17.95672 -9.9722,17.04791 -3.51224,14.8362 z"
       id="path2996"
       inkscape:connector-curvature="0" />
  </g>
</svg>
