<?xml version="1.0" encoding="UTF-8" standalone="no"?>
<!-- Created with Inkscape (http://www.inkscape.org/) -->

<svg
   xmlns:dc="http://purl.org/dc/elements/1.1/"
   xmlns:cc="http://creativecommons.org/ns#"
   xmlns:rdf="http://www.w3.org/1999/02/22-rdf-syntax-ns#"
   xmlns:svg="http://www.w3.org/2000/svg"
   xmlns="http://www.w3.org/2000/svg"
   xmlns:sodipodi="http://sodipodi.sourceforge.net/DTD/sodipodi-0.dtd"
   xmlns:inkscape="http://www.inkscape.org/namespaces/inkscape"
   id="svg2"
   version="1.1"
   inkscape:version="0.48.4 r9939"
   width="552.90619"
   height="289.88391"
   sodipodi:docname="Silhouette_1330272.svg">
  <metadata
     id="metadata8">
    <rdf:RDF>
      <cc:Work
         rdf:about="">
        <dc:format>image/svg+xml</dc:format>
        <dc:type
           rdf:resource="http://purl.org/dc/dcmitype/StillImage" />
        <dc:title />
      </cc:Work>
    </rdf:RDF>
  </metadata>
  <defs
     id="defs6" />
  <sodipodi:namedview
     pagecolor="#ffffff"
     bordercolor="#666666"
     borderopacity="1"
     objecttolerance="10"
     gridtolerance="10"
     guidetolerance="10"
     inkscape:pageopacity="0"
     inkscape:pageshadow="2"
     inkscape:window-width="1366"
     inkscape:window-height="706"
     id="namedview4"
     showgrid="false"
     inkscape:zoom="0.72284123"
     inkscape:cx="1324.6015"
     inkscape:cy="264.93776"
     inkscape:window-x="-8"
     inkscape:window-y="-8"
     inkscape:window-maximized="1"
     inkscape:current-layer="svg2"
     fit-margin-top="0"
     fit-margin-left="0"
     fit-margin-right="0"
     fit-margin-bottom="0" />
  <path
     style="fill:#000000"
     d="m 481.39093,285.91456 c -2.11541,-2.24819 -4.97753,-6.55878 -6.36027,-9.57909 -2.16776,-4.73502 -2.82234,-5.41409 -4.75197,-4.92979 -1.72068,0.43186 -2.50705,-0.029 -3.40244,-1.9942 -1.65561,-6.15646 -2.23836,-12.82415 -7.38364,-17.54145 -2.99682,-2.63086 -3.00252,-2.6569 -3.2834,-15 2.91607,-21.16801 -12.91314,-64.85689 -4.06962,-82.67591 2.44129,-4.72092 5.78486,-15.07657 5.18252,-16.05118 -17.591,-1.74334 -37.45655,-6.10752 -55.08496,-6.63747 l 0.23884,3.91182 c 4.73072,19.4217 10.1638,40.49926 20.84606,57.08818 2.62234,4.00287 3.50582,6.73128 4.43009,13.68129 0.63498,4.77471 0.91009,11.97471 0.61134,16 -0.85382,11.50443 -0.61905,10.96008 -3.76179,8.72225 -3.43895,-2.44874 -7.5385,-7.30093 -8.36283,-9.89814 -5.58145,-5.91661 -7.09036,-15.11403 -12.25021,-22.65216 -8.71262,-21.81677 -12.44168,-42.81715 -26.25153,-64.35324 -0.275,-0.275 -0.51761,-0.95 -0.53913,-1.5 -0.10023,-2.56115 -6.79078,-14.88155 -9.22819,-16.99339 -1.60719,-1.39251 -4.67717,-2.63922 -7.45387,-3.02701 -4.1048,-0.57327 -5.41327,-0.26338 -10.02218,2.37357 -34.44361,14.43256 -88.2296,73.39498 -129.57181,66.68401 -4.49218,-0.80576 -9.18482,-2.74782 -9.18482,-3.80116 0,-0.42667 -1.03457,-2.45432 -2.29905,-4.50589 -8.74988,-15.31492 -2.78446,-20.46878 -6.3702,-35.10835 -3.57285,-8.97921 -2.74993,-20.54595 -6.56171,-28.90958 -1.81772,-3.78077 -6.18269,-6.05948 -8.65256,-4.51701 -1.18354,0.73913 -6.02283,1.17627 -12.74269,1.15107 -11.81373,-0.0443 -17.60227,-1.84007 -18.87692,-5.856131 -0.35671,-1.12388 -1.76243,-2.77325 -3.12383,-3.66527 -18.41871,-29.07623 -45.35434,-42.28308 -69.470176,-63.41507 -2.42157,-2.15057 -6.44825,-4.59062 -8.94817,-5.42234 -22.9772,-6.41158 -52.2132,-2.52484 -71.10627,2.05657 -2.1642,0.53176 -2.78124998,0.24297 -3.35701998,-1.5711 -0.45582,-1.43619 -0.22528,-2.52685 0.65159,-3.08245 0.74634998,-0.47292 0.90700998,-0.87674 0.35700998,-0.89739 2.8051,-4.71926 5.87774,-7.92527 9.69546,-13.21211 6.78632,-6.9485596 44.24521,-14.6364996 56.80454,-8.6142996 0,0.45833 0.46899,0.83333 1.04221,0.83333 1.33668,0 3.19652,1.48926 8.42961,6.75 2.32521,2.3374996 4.68195,4.2499996 5.23719,4.2499996 16.80426,15.96208 55.249966,20.87151 69.829086,35.74219 3.47934,3.58257 3.91862,3.74253 10.29813,3.75 5.9008,0.007 7.20073,-0.36506 11.35361,-3.24884 2.57941,-1.79116 6.74279,-5.36884 9.25194,-7.95041 5.71244,-5.87728 13.06824,-8.31532 17.10602,-5.66967 4.57596,3.68741 3.88751,10.10084 3.79667,14.60552 -0.2051,9.10416 -0.0111,10.43311 1.76427,12.08714 1.25931,1.17323 2.62081,1.59342 3.69298,1.13973 37.3183,-9.76998 80.45786,-32.75205 117.69828,-32.77794 10.24314,0.0276 20.80091,4.12661 25.5,9.90033 1.925,2.36522 4.0625,4.32775 4.75,4.36118 0.6875,0.0334 1.25,0.42903 1.25,0.87912 0,1.93917 6.87716,8.14934 11.1321,10.05244 3.51953,1.57416 6.16159,1.9888 11,1.7263 32.69476,-5.65871 57.4907,-5.69163 83.21562,12.40291 10.02348,8.51432 16.80933,9.47429 26.65228,8.44951 14.8188,-3.76232 38.52008,-13.61616 50.75,-0.98563 4.015,3.76485 8.47328,8.3267 9.70741,10.56748 1.17369,2.15709 2.13269,11.274331 1.52188,14.468661 -2.27937,18.44859 -14.3688,39.70137 -24.34835,41.55781 -13.2204,1.67102 -15.21565,2.0361 -17.58799,3.21814 -1.35116,0.67323 -3.60116,2.34905 -5,3.72405 -3.03211,2.98046 -8.75758,3.90824 -9.65682,1.56484 -0.37708,-0.98365 -1.82939,-1.56486 -3.90979,-1.56486 -1.82032,0 -3.45967,-0.38152 -3.64301,-0.84782 -0.18333,-0.4663 -2.13333,-1.12212 -4.33333,-1.45738 -3.75502,-0.57222 -4.16164,-0.38215 -6.63927,3.10355 -3.86969,24.71205 -2.8343,53.23105 -4.3103,81.40996 -0.43726,7.80533 3.84994,14.93396 12.82088,21.3182 1.02923,0.73245 2.23129,3.05113 2.67125,5.15261 0.43996,2.10148 1.54277,5.83385 2.45068,8.29414 1.18499,3.21112 1.50204,6.31479 1.12367,11 -0.2899,3.58971 -0.5473,6.86424 -0.572,7.27674 -0.0247,0.4125 -0.91835,0.75 -1.98589,0.75 -1.06754,0 -2.2191,0.45 -2.55902,1 -1.00621,1.62808 -1.80163,1.20754 -5.84619,-3.09091 z m -240.439,-154.40909 c 2.0235,-1.375 3.98017,-2.5 4.34816,-2.5 5.34295,-2.44049 31.98767,-24.17963 24.18703,-29.665891 -14.15999,1.945021 -33.63524,-3.94144 -45.99288,1.098541 -2.17619,0.96874 -1.65627,3.79664 2.21863,12.06734 4.47644,9.55464 5.76747,12.78257 6.49692,16.24404 0.58145,2.75921 2.62881,5.11302 4.5452,5.22555 0.28482,0.0167 2.17345,-1.09459 4.19694,-2.46958 z"
     id="path2987"
     inkscape:connector-curvature="0"
     sodipodi:nodetypes="sssccccccccssscccsssccscccsssccccsccccsscccssccsccscsscccccccsscscsccssssssssccccsscc" />
</svg>
